<svg width="154" height="130" viewBox="0 0 154 130" fill="none" xmlns="http://www.w3.org/2000/svg">
<g clip-path="url(#clip0_435_19888)">
<g clip-path="url(#clip1_435_19888)">
<path fill-rule="evenodd" clip-rule="evenodd" d="M69.1391 18.2648C82.0918 12.714 103.846 20.4437 108.62 34.6651C108.952 34.7542 109.138 34.2274 109.636 33.5577C110.027 32.9694 110.506 32.2766 110.915 31.6612C123.42 10.7587 152.634 22.1743 153.86 44.9464V44.9503L153.868 45.0353C155.456 62.5623 142.542 75.3939 125.063 72.2159C124.491 72.1501 123.795 71.9802 124.039 72.4718C125.47 73.9959 127.045 75.448 128.395 77.1417L129.188 78.1612C131.776 81.5821 133.68 85.5075 133.81 89.8478C136.11 112.871 83.5381 119.901 86.8578 107.472C87.2328 106.38 87.3834 105.579 85.9262 105.85C82.3703 106.21 78.7642 105.54 75.2856 104.72C74.8565 104.592 74.4348 104.437 74.0444 104.247C73.198 103.914 72.7071 103.094 71.8647 102.978C71.4938 102.939 71.1033 103.167 70.7709 103.376C68.3822 105.083 65.7374 106.694 63.0317 107.785C54.1412 110.905 33.2221 116.061 26.7787 108.067C24.9123 105.362 27.5832 103.457 29.1254 101.255C32.4264 95.9094 33.8913 85.0055 30.3276 79.8224C29.311 78.425 27.3632 78.196 25.9291 77.4103C22.4813 74.6968 27.9623 71.8286 30.2621 70.8067C30.6092 70.4999 36.1745 68.2414 33.6869 68.5275C28.0629 69.1352 22.4076 71.0586 17.1469 73.0753C14.6075 74.1243 12.2032 75.8736 9.33148 75.6183C5.67101 75.2544 4.46884 72.9201 5.08343 69.5099C5.52411 66.1811 6.625 62.5698 7.04632 59.1134C7.73048 50.4659 6.83373 38.6907 2.34222 32.0909C1.70828 31.193 0.552976 30.492 0.0775697 29.5011C-0.35125 28.3321 1.08285 26.9662 2.03753 26.3585C5.97633 23.9702 20.6479 17.6839 25.3989 19.7618C29.3531 22.0147 25.8939 28.7546 25.4262 32.2306C24.143 38.7954 24.6143 45.6816 24.3012 52.378C24.3321 52.9161 24.0584 54.1007 24.8276 53.7833C26.3161 53.1483 31.5994 50.7673 33.3774 49.9816C34.2081 49.7338 34.0112 48.9602 33.8373 48.2482C33.1416 44.9541 32.9326 39.8948 31.3246 37.2433C30.7101 36.0781 29.3034 35.5782 28.4916 34.6144C26.3392 30.1514 39.2105 26.0561 42.6313 25.2433C51.1268 23.823 48.7727 32.579 49.0317 38.3155C49.1902 40.3476 49.5302 43.1073 50.2182 45.5226C50.7284 47.6089 51.9193 49.4827 54.2114 48.8673C58.2119 47.6286 56.102 40.8004 55.1742 37.9669C54.5829 35.8418 51.4208 30.3682 52.4799 28.5489C54.2697 25.526 61.2809 24.2447 64.5317 25.7618C67.2567 27.1205 68.9845 34.8857 70.1557 38.1798C70.9055 40.8661 71.5008 44.7058 72.0922 47.2296C72.2623 47.907 72.2742 46.5718 72.3051 46.3976C72.6414 40.3126 72.4051 33.8563 69.4057 28.3868C67.7397 25.3482 64.3388 23.2073 65.6801 20.7687C66.2793 19.7353 67.9796 18.7486 69.1391 18.2648ZM100.646 67.13C98.377 67.0913 96.1038 67.3041 93.8813 67.6603C92.7372 67.8886 91.1908 67.8263 90.3598 68.7706C89.9346 69.3202 90.287 70.195 90.6078 70.7911C91.1026 71.7279 91.5772 72.6575 91.9135 73.6407C95.1796 83.5499 94.1869 94.6396 91.3344 104.529C91.06 105.362 90.6224 106.163 90.4291 107.007C89.8145 111.064 95.5399 110.17 98.0717 110.03C109.324 109.241 121.839 105.207 127.629 94.7599C130.281 90.1226 130.637 84.7726 127.684 80.1896L127.645 80.1241C122.121 70.962 110.897 67.1997 100.646 67.13ZM61.0492 67.3732C53.825 65.9603 46.3145 67.3037 39.268 68.9991C36.427 69.723 33.5706 70.6211 30.977 71.9952C29.7323 72.6378 28.6271 73.5014 30.351 74.2833C38.2398 78.4835 36.3034 95.6387 32.0864 102.022C31.3094 103.28 30.2234 105.045 31.1782 106.439C31.6382 107.108 32.5697 107.386 33.3774 107.545C40.0952 108.9 46.9753 108.3 53.5346 106.624C56.4954 105.924 59.5574 105.029 62.3559 103.748C66.1825 101.948 70.4152 99.1644 71.4008 94.8136H71.4086L71.4233 94.7442C72.7104 89.2052 66.8668 84.9898 62.0004 84.4864C61.5443 84.4284 60.8293 84.3163 61.1772 83.755C65.5682 78.7577 71.0912 69.4672 61.0492 67.3732ZM84.6625 69.0733C83.557 67.8115 79.305 68.4655 77.6391 68.5235C76.0234 68.7442 74.1601 68.6352 72.7377 69.5255C72.011 70.0481 72.336 71.0007 72.6723 71.7013C75.4862 77.6081 76.1274 84.4556 76.0346 90.8966C75.9844 93.3428 75.8029 95.8589 75.5092 98.2355C75.2812 99.6135 75.1619 101.336 76.5766 102.107C77.4345 102.625 78.4701 102.772 79.4594 102.846C81.0789 102.935 82.5712 102.954 84.1674 102.773H84.1713L84.2485 102.765C88.6202 102.165 88.7864 100.249 87.4799 96.5558C86.7146 94.0127 86.3357 91.3608 85.9994 88.7325C85.6245 83.9135 85.2851 79.0865 85.061 74.2442C85.0185 73.0327 85.0563 71.8289 85.0795 70.6212C85.0795 70.0833 85.0025 69.4682 84.6625 69.0733ZM103.916 77.6974C110.333 77.1439 117.421 78.9826 118.067 86.5577H118.071V86.631C118.372 91.7095 115.21 95.84 110.495 97.5509C108.601 98.1895 105.713 98.9635 104.067 99.2345C103.812 97.663 103.681 80.2759 103.561 78.003C103.561 77.7824 103.607 77.74 103.916 77.6974ZM49.6352 88.3966C51.5215 88.1682 53.6208 88.1947 55.31 89.1896C58.2167 90.916 57.1959 94.3613 54.7221 95.9483C52.4725 97.4386 49.7277 97.9306 47.1225 98.3409C46.0794 98.4295 46.4273 97.1749 46.35 96.2228V95.6192C46.35 94.7097 46.358 93.7846 46.3735 92.8634C46.3889 92.0234 46.3919 91.2759 46.3803 90.3624C46.3803 89.9833 46.3846 89.577 46.5815 89.2482C46.8289 88.8107 47.4672 88.7635 48.1166 88.6319C48.5958 88.5468 49.075 88.4702 49.558 88.4083V88.4044L49.6352 88.3966ZM88.5356 72.9747C88.4737 72.8586 88.4426 73.0138 88.4272 73.3312C88.261 77.8908 88.5898 82.4698 88.7328 87.0372C88.8372 89.6345 88.9686 92.2591 89.2817 94.8331L89.2856 94.8292L89.2934 94.9073C89.3825 95.7172 90.0084 99.1021 90.2094 96.6407C90.8935 90.9933 91.1366 85.2026 90.1625 79.59C90.0041 78.6689 89.8688 78.0341 89.6215 77.0821C89.2891 75.8783 88.8448 73.8882 88.5356 72.9747ZM49.3344 91.462C48.9788 91.5201 48.9897 91.7059 48.9897 92.1085V95.5343C48.9832 95.8701 48.9767 96.0727 49.1332 96.1105L49.1674 96.1183C51.0035 95.917 54.4095 95.2167 54.0307 92.7355C53.5167 91.435 50.5677 91.4079 49.3344 91.462ZM109.552 81.8429C109.03 81.7229 108.287 81.4246 107.905 81.9278C107.731 82.1756 107.739 82.644 107.739 82.9923C107.789 87.0486 107.801 93.0632 107.809 94.0743C107.828 94.2756 107.917 94.2219 108.176 94.129C110.855 93.1535 113.073 90.8149 113.498 87.881H113.495L113.506 87.8077C113.943 85.2492 112.034 82.505 109.552 81.8429ZM72.769 86.5577C72.8656 84.7694 71.2457 70.7026 69.8735 74.0235C69.541 77.3409 68.277 80.4957 65.8959 83.0001C65.7065 83.2169 65.4204 83.5385 65.4282 83.7823C65.4515 84.1576 66.0244 84.2776 66.3451 84.3976C68.3086 85.0324 70.079 86.2324 71.7758 87.3858C72.0037 87.529 72.3086 87.7302 72.5366 87.6417L72.5678 87.6222C72.7919 87.4906 72.7806 86.8868 72.769 86.5577ZM46.145 74.3224C49.3416 73.7146 56.6928 72.4565 55.433 77.9064H55.4291L55.4106 77.9806C54.2547 81.7546 50.1145 83.3298 46.7748 84.673C46.4579 84.7581 45.9129 85.149 45.6694 84.8741C45.4646 84.2356 45.6961 83.3108 45.6498 82.5948C45.673 80.6091 45.488 78.5218 45.1401 76.6212C44.912 75.5568 44.7845 74.5043 46.145 74.3224ZM50.5395 77.1827C49.952 77.2485 49.2833 77.3258 48.8002 77.5812C48.7152 77.647 48.684 77.7365 48.684 77.8448C48.7072 78.3752 48.8548 79.982 48.9321 80.9845C48.9899 81.4911 48.928 81.8239 49.1479 81.8126L49.1557 81.8048H49.1987C52.0706 80.9415 54.3275 76.8692 50.5395 77.1827ZM22.4496 20.6759C21.6419 20.7108 20.7103 20.8963 19.8832 21.0743C14.9938 22.1852 10.0733 23.7025 5.53167 25.8468C4.3914 26.3848 2.96497 27.1633 4.04339 28.5607C4.67344 29.4548 5.32667 30.4459 5.88714 31.464C7.21285 33.8367 8.19823 36.3758 8.89398 38.9962C11.5185 49.0952 10.2276 59.6748 9.18011 69.9132C9.01399 70.9892 9.17664 72.2858 10.5717 72.046C12.7671 71.4693 14.8197 70.339 17.0151 69.7003C22.6043 67.9159 28.2595 65.9417 34.185 65.7403L34.1772 65.7364H34.2543C35.7811 65.5855 37.6717 65.8527 39.0014 65.0206C40.8877 63.3097 39.3529 60.495 38.4252 58.6603C37.4473 56.6049 36.698 54.2551 36.0834 52.0372C35.9714 51.7431 35.8396 51.6541 35.6 51.7159C35.1516 51.8553 34.2776 52.1923 33.1567 52.6026C30.1997 53.6981 25.4457 55.4751 22.5043 56.5782C21.2636 57.0311 20.5942 57.3133 20.0453 57.4913C19.6555 57.5064 19.7136 56.9493 19.6557 56.4425C19.7175 49.657 19.8756 42.8171 20.5405 36.0548C21.0275 31.2745 21.8621 26.5172 23.1801 21.8917C23.3734 21.1446 23.2807 20.6565 22.4496 20.6759ZM69.6655 60.2941C69.7466 59.3071 69.3674 59.5737 68.8998 60.131C68.0456 61.1451 67.1175 62.1363 66.0893 62.9376C64.8988 63.882 63.5806 64.6288 62.1196 65.0353C61.447 65.2326 60.6662 65.3806 60.0014 65.5548C59.5304 65.6941 59.9132 65.7635 60.2455 65.837C62.8081 66.3248 65.5138 67.3664 67.5082 69.0694C69.2552 70.7916 70.2219 69.9131 71.9496 68.837C73.8746 67.8229 76.1631 67.6371 78.2465 67.3468C78.2926 67.3042 78.2268 67.2493 78.061 67.1759C77.887 67.1023 77.6427 67.017 77.434 66.9435C75.4474 66.239 73.3988 65.4888 71.3813 64.796C70.9793 64.645 70.5655 64.4702 70.2524 64.1954L70.2602 64.1993L70.2065 64.1534C69.2711 63.2941 69.5959 61.5288 69.6655 60.2941ZM107.008 54.9523C106.664 54.3252 106.328 54.5769 105.976 55.0724C101.55 61.974 93.6144 66.1277 85.5707 67.0489C83.762 67.1961 84.9178 67.9469 86.1508 68.005C87.7316 68.001 88.9494 66.9171 90.4877 66.4874C98.3806 64.014 107.313 65.802 115.152 67.5206L115.16 67.5167V67.5011C115.163 67.3384 114.746 66.9514 114.538 66.7657C110.989 63.5182 108.825 59.3958 107.008 54.9523ZM148.615 36.8946C142.813 17.4746 119.396 16.8865 111.549 35.3194C106.826 46.3821 109.463 55.5406 118.789 62.9415L118.847 62.9884C131.877 73.1958 147.335 64.6873 148.746 48.8673C149.186 44.9191 149.662 40.7887 148.615 36.8946ZM85.9145 18.9454C80.2403 17.6604 74.1639 17.5406 69.0463 20.1456C67.9798 20.8772 69.1359 21.8061 69.7543 22.7931C70.0287 23.1878 70.2834 23.579 70.5346 23.9816L70.5307 23.9855L70.5698 24.047C73.7239 29.1681 75.339 35.1839 75.4975 41.1876C75.6057 45.2829 74.7598 49.332 74.2612 53.3614C73.9829 55.6141 73.6343 57.8744 73.3637 60.1192C73.1589 61.4855 73.9708 62.713 75.308 63.046C80.1784 64.0486 85.2889 63.7819 90.1244 62.671C94.1714 61.8465 98.3847 60.3981 101.102 57.1505C105.257 51.7081 106.471 44.3148 105.956 37.6261C105.636 33.5425 103.865 29.7494 100.905 26.9044C96.8577 22.8942 91.469 20.2809 85.9145 18.9454ZM64.0951 28.3751C63.469 25.2901 59.8241 26.525 57.6479 27.0011C54.7643 27.9417 54.7599 28.8476 56.2094 31.2823C58.4049 36.0551 61.6675 44.6482 57.6244 49.0841C54.5516 51.9019 50.3966 51.6463 47.8803 48.2364C45.7505 45.7204 45.178 42.298 45.3442 39.1046C45.4137 36.4841 45.526 33.8442 45.6342 31.2198C45.6536 30.1167 45.8935 28.9977 45.7582 27.8868C45.3213 25.534 42.1714 26.6986 40.6059 27.0587C38.9167 27.5232 31.5601 30.3879 31.4789 32.1026L31.4721 32.0987V32.1485C31.5223 32.4814 31.8118 32.7915 32.0785 33.047C35.9168 36.5307 35.4836 42.5462 36.8442 47.1564C38.3671 53.4426 41.5371 60.0346 48.4096 61.5675C51.7143 62.5042 55.2547 62.4649 58.602 61.7218C64.7748 60.487 68.4051 55.5833 68.6371 49.4288C68.7338 47.8728 68.7492 46.2815 68.5444 44.7023C68.2661 42.4921 67.3956 40.3516 66.8158 38.211C65.9114 34.9402 65.0035 31.6459 64.0951 28.3751ZM120.27 45.0392C120.966 39.2949 126.115 33.299 132.291 34.2628C138.986 35.726 139.191 44.4159 136.802 49.5177C131.913 59.8335 118.462 57.2436 120.259 45.1085V45.1124L120.27 45.0392ZM131.577 39.7745C125.972 39.7629 122.419 49.8163 126.563 53.5245C128.758 55.2778 132.5 52.9629 133.652 50.2071C134.869 47.5285 136.288 39.9952 131.65 39.7745H131.577ZM84.5854 32.962C84.6472 31.9517 85.7143 32.2377 86.4565 32.2687C98.7944 33.6467 99.1616 46.9657 87.7592 50.4845C87.2799 50.6354 86.7961 50.7827 86.3129 50.9259C85.54 51.1426 84.806 51.4756 84.5239 51.1622H84.52L84.4926 51.131C84.1102 50.3878 84.3688 49.3429 84.3032 48.5108C84.2645 45.2245 84.6165 41.9376 84.6088 38.6319C84.5702 36.898 84.539 34.6727 84.5854 32.962ZM92.1459 40.0216C91.6006 39.2822 89.7186 37.8468 88.9301 38.8448L88.9067 38.8878C88.5395 40.3509 88.6092 42.4063 88.4584 44.1095C88.385 45.6965 88.3195 47.2025 88.3852 47.8644C88.4935 48.472 89.2201 47.9417 89.5834 47.7482C92.1461 46.1882 94.0399 42.5763 92.1459 40.0216Z" fill="black"/>
</g>
</g>
<defs>
<clipPath id="clip0_435_19888">
<rect width="154" height="130" fill="white"/>
</clipPath>
<clipPath id="clip1_435_19888">
<rect width="154" height="154" fill="white" transform="translate(0 -12)"/>
</clipPath>
</defs>
</svg>
